<!DOCTYPE svg PUBLIC "-//W3C//DTD SVG 1.1//EN" "http://www.w3.org/Graphics/SVG/1.1/DTD/svg11.dtd">
<!-- Uploaded to: SVG Repo, www.svgrepo.com, Transformed by: SVG Repo Mixer Tools -->
<svg fill="#1282a2" width="800px" height="800px" viewBox="0 0 512 512" enable-background="new 0 0 512 512" id="Investment" version="1.1" xml:space="preserve" xmlns="http://www.w3.org/2000/svg" xmlns:xlink="http://www.w3.org/1999/xlink" stroke="#1282a2">
<g id="SVGRepo_bgCarrier" stroke-width="0"/>
<g id="SVGRepo_tracerCarrier" stroke-linecap="round" stroke-linejoin="round" stroke="#fefcfb" stroke-width="4.096"> <g> <path d="M259.364,82.332c-14.18,0-25.676,11.496-25.676,25.678c0,14.184,11.496,25.68,25.676,25.68 c14.184,0,25.682-11.496,25.682-25.68C285.046,93.828,273.548,82.332,259.364,82.332z"/> <path d="M396.075,78.291c-8.32,0-15.063,6.742-15.063,15.061c0,8.322,6.742,15.066,15.063,15.066s15.063-6.744,15.063-15.066 C411.138,85.033,404.396,78.291,396.075,78.291z"/> <path d="M484.144,12.5H27.302c-8.055,0-14.802,7.254-14.802,15.309V197.66c0,8.057,6.747,12.84,14.802,12.84h211.973l7.111,13.246 l9.584,17.152c1.666,2.904,5.873,3.075,7.492,0.151l9.182-17.414l6.818-13.135h204.682c8.055,0,14.356-4.783,14.356-12.84V27.809 C498.5,19.754,492.198,12.5,484.144,12.5z M134.579,146.846c-1.4,0.283-3.079,1.469-3.079,2.902v4.693 c0,1.629-0.042,2.059-1.673,2.059h-11.154c-1.629,0-3.173-0.43-3.173-2.059v-4.625c0-1.426-0.923-2.611-2.32-2.898 c-13.104-2.717-20.842-11.191-22.995-20.24c-0.434-1.828,1.081-4.178,2.96-4.178h14.734c1.141,0,2.186,1.256,2.656,2.297 c2.01,4.434,6.246,7.99,14.852,7.99c8.162,0,11.039-3.351,11.039-7.144c0-4.727-2.492-6.884-16.795-10.173 c-21.377-5.131-28.166-13.587-28.166-24.839c0-11.125,6.656-20.178,20.175-23.256c1.373-0.313,1.859-1.465,1.859-2.875v-2.836 c0-1.631,2.368-4.162,3.999-4.162h11.102c1.631,0,2.899,2.531,2.899,4.162v2.783c0,1.422,1.049,2.604,2.442,2.9 c12.947,2.773,18.978,10.648,20.759,18.211c0.443,1.889-0.913,3.943-2.853,3.943h-14.693c-1.217,0-2.289-0.98-2.744-2.107 c-1.137-2.807-3.652-6.325-12.477-6.325c-8.352,0-10.078,3.901-10.078,6.78c0,4.293,2.783,6.352,16.076,9.375 c23.248,5.137,29.163,13.76,29.163,25.995C157.096,134.954,149.34,143.865,134.579,146.846z M313.5,113.633 c0,1.391-0.686,2.596-2.043,2.893l-6.678,1.496c-1.063,0.232-1.838,1.033-2.139,2.08c-1.234,4.369-3.077,8.469-5.493,12.188 c-0.635,0.977-0.627,2.23,0,3.213l3.438,5.352c0.75,1.174,0.589,2.709-0.396,3.693l-6.119,6.121c-0.984,0.982-2.521,1.148-3.69,0.4 l-6.023-3.859c-0.918-0.588-2.086-0.621-3.037-0.09c-3.813,2.125-7.965,3.709-12.357,4.654c-1.135,0.246-2.025,1.125-2.275,2.258 l-1.391,5.748c-0.299,1.359-1.504,1.721-2.895,1.721h-8.658c-1.391,0-2.594-0.361-2.893-1.721l-1.553-6.78 c-0.234-1.064-1.035-1.763-2.086-2.058c-4.283-1.209-8.307-2.964-11.969-5.308c-0.977-0.627-2.223-0.593-3.199,0.032l-5.521,3.554 c-1.172,0.752-2.709,0.594-3.691-0.39l-6.121-6.119c-0.984-0.984-1.152-2.518-0.4-3.688l3.893-6.078 c0.592-0.926,0.623-2.097,0.082-3.052c-2.143-3.795-3.748-7.932-4.721-12.311c-0.248-1.127-1.125-2.012-2.254-2.258l-6.899-1.385 c-1.361-0.299-2.911-1.504-2.911-2.895v-8.658c0-1.391,1.549-2.594,2.911-2.893l7.195-1.514c1.072-0.236,2.071-1.045,2.362-2.104 c1.201-4.367,3.119-8.471,5.502-12.199c0.621-0.975,0.663-2.219,0.04-3.193l-3.389-5.318c-0.75-1.172-0.573-2.707,0.411-3.691 l6.124-6.121c0.984-0.984,2.523-1.15,3.697-0.4l5.815,3.725c0.924,0.592,2.104,0.621,3.059,0.074 c3.885-2.215,8.129-3.867,12.627-4.846c1.133-0.246,2.02-1.125,2.266-2.256l1.318-5.918c0.299-1.361,1.502-2.232,2.896-2.232h8.654 c1.393,0,2.598,0.871,2.895,2.232l1.457,6.591c0.234,1.074,1.043,1.901,2.1,2.194c4.453,1.227,8.631,3.11,12.414,5.561 c0.979,0.633,2.23,0.635,3.211,0.008l5.146-3.299c1.174-0.752,2.709-0.587,3.691,0.397l6.121,6.121 c0.984,0.984,1.15,2.521,0.4,3.689l-3.688,5.76c-0.59,0.92-0.621,2.093-0.084,3.046c2.195,3.9,3.828,8.162,4.781,12.672 c0.242,1.141,1.123,2.035,2.262,2.283l5.763,1.326c1.357,0.299,2.043,1.5,2.043,2.895V113.633z M411.138,156.5h-30.125 c-2.486,0-4.5-2.016-4.5-4.5s2.014-4.5,4.5-4.5h30.125c2.486,0,4.5,2.016,4.5,4.5S413.624,156.5,411.138,156.5z M415.5,121.453 v8.861c0,3.418-2.097,6.186-5.513,6.186h-27.311c-3.416,0-6.177-2.768-6.177-6.186v-8.861c-11-6.59-15.873-17.645-15.873-29.676 c0-19.689,16.02-35.711,35.709-35.711s35.373,16.021,35.373,35.711C431.709,103.813,426.5,114.863,415.5,121.453z"/> <path d="M302.364,386.953c-15.658,0.541-27.607,5.424-35.459,14.514c-2.229,2.564-3.938,5.287-5.289,8.008 c-1.348-2.721-3.061-5.443-5.285-8.008c-7.854-9.09-19.779-13.973-35.463-14.514c-2.406-0.133-4.521,1.822-4.633,4.273 c-0.045,0.768-0.799,19.15,11.667,32.447c6.771,7.244,16.597,11.496,27.597,12.711v56.531c0,3.422,2.082,6.188,5.5,6.188 c3.422,0,5.5-2.766,5.5-6.188v-44.105v-12.42v-0.006c11-1.215,21.443-5.467,28.215-12.711 c12.463-13.297,12.004-31.68,11.982-32.447C306.561,388.775,304.886,386.82,302.364,386.953z"/> <path d="M253.5,363.713c0,3.416,2.084,6.188,5.5,6.188s5.5-2.771,5.5-6.188v-11.25c0-3.416-2.084-6.188-5.5-6.188 s-5.5,2.771-5.5,6.188V363.713z"/> <path d="M253.5,325.463c0,3.416,2.084,6.188,5.5,6.188s5.5-2.771,5.5-6.188v-11.25c0-3.416-2.084-6.188-5.5-6.188 s-5.5,2.771-5.5,6.188V325.463z"/> <path d="M259,293.4c3.416,0,5.5-2.771,5.5-6.188v-11.25c0-3.416-2.084-6.188-5.5-6.188s-5.5,2.771-5.5,6.188v11.25 C253.5,290.629,255.584,293.4,259,293.4z"/> <path d="M162.663,342.988c-15.684,0.541-27.609,5.422-35.459,14.514c-2.229,2.586-3.963,5.311-5.289,8.029 c-1.35-2.719-3.061-5.443-5.287-8.029c-7.854-9.092-19.799-13.973-35.461-14.514c-2.432-0.068-4.521,1.824-4.656,4.275 c-0.025,0.787-0.926,19.17,11.542,32.467c6.771,7.223,16.447,11.475,27.447,12.689v12.422v88.074c0,3.422,2.578,6.188,6,6.188 s6-2.766,6-6.188v-88.074V392.42c11-1.215,21.092-5.467,27.866-12.689c12.439-13.297,11.826-31.68,11.781-32.467 C167.035,344.813,165.138,342.852,162.663,342.988z"/> <path d="M115.5,323.857c0,3.416,2.584,6.188,6,6.188s6-2.771,6-6.188v-11.25c0-3.418-2.584-6.188-6-6.188s-6,2.77-6,6.188V323.857z "/> <path d="M121.5,291.795c3.416,0,6-2.771,6-6.188v-11.25c0-3.418-2.584-6.188-6-6.188s-6,2.77-6,6.188v11.25 C115.5,289.023,118.084,291.795,121.5,291.795z"/> <path d="M444.048,342.988c-15.66,0.541-27.607,5.422-35.461,14.514c-2.227,2.586-3.938,5.311-5.289,8.029 c-1.326-2.719-3.059-5.443-5.285-8.029c-7.854-9.092-19.777-13.973-35.461-14.514c-2.43-0.068-4.521,1.824-4.635,4.275 c-0.045,0.787-0.614,19.17,11.825,32.467c6.775,7.223,15.758,11.475,27.758,12.689v100.496c0,3.422,2.082,6.188,5.5,6.188 c3.422,0,5.5-2.766,5.5-6.188v-88.053V392.42c12-1.215,21.283-5.467,28.055-12.689c12.467-13.297,11.926-31.68,11.904-32.467 C448.322,344.813,446.546,342.92,444.048,342.988z"/> <path d="M397.5,323.857c0,3.416,2.084,6.188,5.5,6.188s5.5-2.771,5.5-6.188v-11.25c0-3.418-2.084-6.188-5.5-6.188 s-5.5,2.77-5.5,6.188V323.857z"/> <path d="M403,291.795c3.416,0,5.5-2.771,5.5-6.188v-11.25c0-3.418-2.084-6.188-5.5-6.188s-5.5,2.77-5.5,6.188v11.25 C397.5,289.023,399.584,291.795,403,291.795z"/> </g> </g>
<g id="SVGRepo_iconCarrier"> <g> <path d="M259.364,82.332c-14.18,0-25.676,11.496-25.676,25.678c0,14.184,11.496,25.68,25.676,25.68 c14.184,0,25.682-11.496,25.682-25.68C285.046,93.828,273.548,82.332,259.364,82.332z"/> <path d="M396.075,78.291c-8.32,0-15.063,6.742-15.063,15.061c0,8.322,6.742,15.066,15.063,15.066s15.063-6.744,15.063-15.066 C411.138,85.033,404.396,78.291,396.075,78.291z"/> <path d="M484.144,12.5H27.302c-8.055,0-14.802,7.254-14.802,15.309V197.66c0,8.057,6.747,12.84,14.802,12.84h211.973l7.111,13.246 l9.584,17.152c1.666,2.904,5.873,3.075,7.492,0.151l9.182-17.414l6.818-13.135h204.682c8.055,0,14.356-4.783,14.356-12.84V27.809 C498.5,19.754,492.198,12.5,484.144,12.5z M134.579,146.846c-1.4,0.283-3.079,1.469-3.079,2.902v4.693 c0,1.629-0.042,2.059-1.673,2.059h-11.154c-1.629,0-3.173-0.43-3.173-2.059v-4.625c0-1.426-0.923-2.611-2.32-2.898 c-13.104-2.717-20.842-11.191-22.995-20.24c-0.434-1.828,1.081-4.178,2.96-4.178h14.734c1.141,0,2.186,1.256,2.656,2.297 c2.01,4.434,6.246,7.99,14.852,7.99c8.162,0,11.039-3.351,11.039-7.144c0-4.727-2.492-6.884-16.795-10.173 c-21.377-5.131-28.166-13.587-28.166-24.839c0-11.125,6.656-20.178,20.175-23.256c1.373-0.313,1.859-1.465,1.859-2.875v-2.836 c0-1.631,2.368-4.162,3.999-4.162h11.102c1.631,0,2.899,2.531,2.899,4.162v2.783c0,1.422,1.049,2.604,2.442,2.9 c12.947,2.773,18.978,10.648,20.759,18.211c0.443,1.889-0.913,3.943-2.853,3.943h-14.693c-1.217,0-2.289-0.98-2.744-2.107 c-1.137-2.807-3.652-6.325-12.477-6.325c-8.352,0-10.078,3.901-10.078,6.78c0,4.293,2.783,6.352,16.076,9.375 c23.248,5.137,29.163,13.76,29.163,25.995C157.096,134.954,149.34,143.865,134.579,146.846z M313.5,113.633 c0,1.391-0.686,2.596-2.043,2.893l-6.678,1.496c-1.063,0.232-1.838,1.033-2.139,2.08c-1.234,4.369-3.077,8.469-5.493,12.188 c-0.635,0.977-0.627,2.23,0,3.213l3.438,5.352c0.75,1.174,0.589,2.709-0.396,3.693l-6.119,6.121c-0.984,0.982-2.521,1.148-3.69,0.4 l-6.023-3.859c-0.918-0.588-2.086-0.621-3.037-0.09c-3.813,2.125-7.965,3.709-12.357,4.654c-1.135,0.246-2.025,1.125-2.275,2.258 l-1.391,5.748c-0.299,1.359-1.504,1.721-2.895,1.721h-8.658c-1.391,0-2.594-0.361-2.893-1.721l-1.553-6.78 c-0.234-1.064-1.035-1.763-2.086-2.058c-4.283-1.209-8.307-2.964-11.969-5.308c-0.977-0.627-2.223-0.593-3.199,0.032l-5.521,3.554 c-1.172,0.752-2.709,0.594-3.691-0.39l-6.121-6.119c-0.984-0.984-1.152-2.518-0.4-3.688l3.893-6.078 c0.592-0.926,0.623-2.097,0.082-3.052c-2.143-3.795-3.748-7.932-4.721-12.311c-0.248-1.127-1.125-2.012-2.254-2.258l-6.899-1.385 c-1.361-0.299-2.911-1.504-2.911-2.895v-8.658c0-1.391,1.549-2.594,2.911-2.893l7.195-1.514c1.072-0.236,2.071-1.045,2.362-2.104 c1.201-4.367,3.119-8.471,5.502-12.199c0.621-0.975,0.663-2.219,0.04-3.193l-3.389-5.318c-0.75-1.172-0.573-2.707,0.411-3.691 l6.124-6.121c0.984-0.984,2.523-1.15,3.697-0.4l5.815,3.725c0.924,0.592,2.104,0.621,3.059,0.074 c3.885-2.215,8.129-3.867,12.627-4.846c1.133-0.246,2.02-1.125,2.266-2.256l1.318-5.918c0.299-1.361,1.502-2.232,2.896-2.232h8.654 c1.393,0,2.598,0.871,2.895,2.232l1.457,6.591c0.234,1.074,1.043,1.901,2.1,2.194c4.453,1.227,8.631,3.11,12.414,5.561 c0.979,0.633,2.23,0.635,3.211,0.008l5.146-3.299c1.174-0.752,2.709-0.587,3.691,0.397l6.121,6.121 c0.984,0.984,1.15,2.521,0.4,3.689l-3.688,5.76c-0.59,0.92-0.621,2.093-0.084,3.046c2.195,3.9,3.828,8.162,4.781,12.672 c0.242,1.141,1.123,2.035,2.262,2.283l5.763,1.326c1.357,0.299,2.043,1.5,2.043,2.895V113.633z M411.138,156.5h-30.125 c-2.486,0-4.5-2.016-4.5-4.5s2.014-4.5,4.5-4.5h30.125c2.486,0,4.5,2.016,4.5,4.5S413.624,156.5,411.138,156.5z M415.5,121.453 v8.861c0,3.418-2.097,6.186-5.513,6.186h-27.311c-3.416,0-6.177-2.768-6.177-6.186v-8.861c-11-6.59-15.873-17.645-15.873-29.676 c0-19.689,16.02-35.711,35.709-35.711s35.373,16.021,35.373,35.711C431.709,103.813,426.5,114.863,415.5,121.453z"/> <path d="M302.364,386.953c-15.658,0.541-27.607,5.424-35.459,14.514c-2.229,2.564-3.938,5.287-5.289,8.008 c-1.348-2.721-3.061-5.443-5.285-8.008c-7.854-9.09-19.779-13.973-35.463-14.514c-2.406-0.133-4.521,1.822-4.633,4.273 c-0.045,0.768-0.799,19.15,11.667,32.447c6.771,7.244,16.597,11.496,27.597,12.711v56.531c0,3.422,2.082,6.188,5.5,6.188 c3.422,0,5.5-2.766,5.5-6.188v-44.105v-12.42v-0.006c11-1.215,21.443-5.467,28.215-12.711 c12.463-13.297,12.004-31.68,11.982-32.447C306.561,388.775,304.886,386.82,302.364,386.953z"/> <path d="M253.5,363.713c0,3.416,2.084,6.188,5.5,6.188s5.5-2.771,5.5-6.188v-11.25c0-3.416-2.084-6.188-5.5-6.188 s-5.5,2.771-5.5,6.188V363.713z"/> <path d="M253.5,325.463c0,3.416,2.084,6.188,5.5,6.188s5.5-2.771,5.5-6.188v-11.25c0-3.416-2.084-6.188-5.5-6.188 s-5.5,2.771-5.5,6.188V325.463z"/> <path d="M259,293.4c3.416,0,5.5-2.771,5.5-6.188v-11.25c0-3.416-2.084-6.188-5.5-6.188s-5.5,2.771-5.5,6.188v11.25 C253.5,290.629,255.584,293.4,259,293.4z"/> <path d="M162.663,342.988c-15.684,0.541-27.609,5.422-35.459,14.514c-2.229,2.586-3.963,5.311-5.289,8.029 c-1.35-2.719-3.061-5.443-5.287-8.029c-7.854-9.092-19.799-13.973-35.461-14.514c-2.432-0.068-4.521,1.824-4.656,4.275 c-0.025,0.787-0.926,19.17,11.542,32.467c6.771,7.223,16.447,11.475,27.447,12.689v12.422v88.074c0,3.422,2.578,6.188,6,6.188 s6-2.766,6-6.188v-88.074V392.42c11-1.215,21.092-5.467,27.866-12.689c12.439-13.297,11.826-31.68,11.781-32.467 C167.035,344.813,165.138,342.852,162.663,342.988z"/> <path d="M115.5,323.857c0,3.416,2.584,6.188,6,6.188s6-2.771,6-6.188v-11.25c0-3.418-2.584-6.188-6-6.188s-6,2.77-6,6.188V323.857z "/> <path d="M121.5,291.795c3.416,0,6-2.771,6-6.188v-11.25c0-3.418-2.584-6.188-6-6.188s-6,2.77-6,6.188v11.25 C115.5,289.023,118.084,291.795,121.5,291.795z"/> <path d="M444.048,342.988c-15.66,0.541-27.607,5.422-35.461,14.514c-2.227,2.586-3.938,5.311-5.289,8.029 c-1.326-2.719-3.059-5.443-5.285-8.029c-7.854-9.092-19.777-13.973-35.461-14.514c-2.43-0.068-4.521,1.824-4.635,4.275 c-0.045,0.787-0.614,19.17,11.825,32.467c6.775,7.223,15.758,11.475,27.758,12.689v100.496c0,3.422,2.082,6.188,5.5,6.188 c3.422,0,5.5-2.766,5.5-6.188v-88.053V392.42c12-1.215,21.283-5.467,28.055-12.689c12.467-13.297,11.926-31.68,11.904-32.467 C448.322,344.813,446.546,342.92,444.048,342.988z"/> <path d="M397.5,323.857c0,3.416,2.084,6.188,5.5,6.188s5.5-2.771,5.5-6.188v-11.25c0-3.418-2.084-6.188-5.5-6.188 s-5.5,2.77-5.5,6.188V323.857z"/> <path d="M403,291.795c3.416,0,5.5-2.771,5.5-6.188v-11.25c0-3.418-2.084-6.188-5.5-6.188s-5.5,2.77-5.5,6.188v11.25 C397.5,289.023,399.584,291.795,403,291.795z"/> </g> </g>
</svg>