<!DOCTYPE svg PUBLIC "-//W3C//DTD SVG 1.1//EN" "http://www.w3.org/Graphics/SVG/1.1/DTD/svg11.dtd">
<!-- Uploaded to: SVG Repo, www.svgrepo.com, Transformed by: SVG Repo Mixer Tools -->
<svg fill="#000000" width="800px" height="800px" viewBox="0 0 24 24" id="quality-3" data-name="Flat Color" xmlns="http://www.w3.org/2000/svg" class="icon flat-color">
<g id="SVGRepo_bgCarrier" stroke-width="0"/>
<g id="SVGRepo_tracerCarrier" stroke-linecap="round" stroke-linejoin="round" stroke="#CCCCCC" stroke-width="0.576">
<path id="secondary" d="M21.94,17.89a1,1,0,0,1-.65.63l-2.71.8-1.69,2.27a1,1,0,0,1-.8.41h0a1,1,0,0,1-.81-.43l-2.88-4.11a1,1,0,0,1-.1-1,1,1,0,0,1,.75-.6,5.94,5.94,0,0,0,4.19-3,1,1,0,0,1,.82-.51,1,1,0,0,1,.87.43L21.82,17A1,1,0,0,1,21.94,17.89Zm-11-2a5.94,5.94,0,0,1-4.19-3,1,1,0,0,0-1.69-.08L2.18,17a1,1,0,0,0,.54,1.53l2.7.8,1.69,2.27a1,1,0,0,0,.8.41h0a1,1,0,0,0,.81-.43l2.88-4.11a1,1,0,0,0,.1-1A1,1,0,0,0,11,15.9Z" style="fill: #034078;"/>
<circle id="primary" cx="12" cy="10" r="8" style="fill: #1282a2;"/>
<path id="secondary-2" data-name="secondary" d="M13,12V7a1,1,0,0,0-.62-.92,1,1,0,0,0-1.09.21l-1,1a1,1,0,0,0,0,1.42A1,1,0,0,0,11,9v3a1,1,0,0,0,0,2h2a1,1,0,0,0,0-2Z" style="fill: #034078;"/>
</g>
<g id="SVGRepo_iconCarrier">
<path id="secondary" d="M21.94,17.89a1,1,0,0,1-.65.63l-2.71.8-1.69,2.27a1,1,0,0,1-.8.41h0a1,1,0,0,1-.81-.43l-2.88-4.11a1,1,0,0,1-.1-1,1,1,0,0,1,.75-.6,5.94,5.94,0,0,0,4.19-3,1,1,0,0,1,.82-.51,1,1,0,0,1,.87.43L21.82,17A1,1,0,0,1,21.94,17.89Zm-11-2a5.94,5.94,0,0,1-4.19-3,1,1,0,0,0-1.69-.08L2.18,17a1,1,0,0,0,.54,1.53l2.7.8,1.69,2.27a1,1,0,0,0,.8.41h0a1,1,0,0,0,.81-.43l2.88-4.11a1,1,0,0,0,.1-1A1,1,0,0,0,11,15.9Z" style="fill: #034078;"/>
<circle id="primary" cx="12" cy="10" r="8" style="fill: #1282a2;"/>
<path id="secondary-2" data-name="secondary" d="M13,12V7a1,1,0,0,0-.62-.92,1,1,0,0,0-1.09.21l-1,1a1,1,0,0,0,0,1.42A1,1,0,0,0,11,9v3a1,1,0,0,0,0,2h2a1,1,0,0,0,0-2Z" style="fill: #034078;"/>
</g>
</svg>