<svg id="canvas" height="auto" xmlns="http://www.w3.org/2000/svg" version="1.1" xmlns:xlink="http://www.w3.org/1999/xlink" viewBox="0 0 900 512" width="auto" style="width: auto; height: auto;"><defs><linearGradient gradientTransform="matrix(6.123233995736766e-17,1,-1,6.123233995736766e-17,0,0)"><stop stop-color="#a6a6a6" offset="0"/><stop stop-color="hsv(0, 0%, 65%)" offset="1"/></linearGradient><linearGradient gradientTransform="matrix(6.123233995736766e-17,1,-1,6.123233995736766e-17,0,0)"><stop stop-color="#262626" offset="0"/><stop stop-color="hsv(240, 1%, 15%)" offset="1"/></linearGradient><linearGradient gradientTransform="matrix(6.123233995736766e-17,1,-1,6.123233995736766e-17,0,0)" id="SvgjsLinearGradient1024"><stop stop-color="#474747" offset="0"/><stop stop-color="hsv(0, 0%, 28%)" offset="1"/></linearGradient><linearGradient gradientTransform="matrix(6.123233995736766e-17,1,-1,6.123233995736766e-17,0,0)"><stop stop-color="#666666" offset="0"/><stop stop-color="hsv(0, 0%, 40%)" offset="1"/></linearGradient><linearGradient gradientTransform="matrix(6.123233995736766e-17,1,-1,6.123233995736766e-17,0,0)" id="SvgjsLinearGradient1026"><stop stop-color="#878787" offset="0"/><stop stop-color="hsv(0, 0%, 53%)" offset="1"/></linearGradient><linearGradient gradientTransform="matrix(6.123233995736766e-17,1,-1,6.123233995736766e-17,0,0)" id="SvgjsLinearGradient1025"><stop stop-color="#c5c7c7" offset="0"/><stop stop-color="hsv(240, 1%, 78%)" offset="1"/></linearGradient><linearGradient gradientTransform="matrix(6.123233995736766e-17,1,-1,6.123233995736766e-17,0,0)"><stop stop-color="#e3e6e6" offset="0"/><stop stop-color="hsv(240, 1%, 90%)" offset="1"/></linearGradient></defs><rect width="900" height="512" fill="#00000000"/><path d="M967.4187463507027 271.96883560511026C927.647478838863 296.72627766120536 853.6089972444461 283.7865194983188 801.0317179993974 280.4994698397708C748.4544387543489 277.21242018122285 688.1769854798756 269.5996240997023 651.9550708804109 252.24653765382232C615.7331562809463 234.89345120794235 598.6945321205058 218.5382912795726 583.7002304026096 176.38095116449102C568.7059286847135 134.22361104940944 547.1510930709102 51.3406020168016 561.9892605730342 -0.6975030366671149C576.8274280751582 -52.73560809013583 630.092642310398 -101.53656216883786 672.7292354153537 -135.84767915632122C715.3658285203094 -170.15879614380458 768.1739680827242 -205.39689364826947 817.8088192027685 -206.56420496156727C867.4436703228127 -207.73151627486507 927.1947668240585 -174.1628597948836 970.5383421356192 -142.851547036108C1013.88191744718 -111.54023427733242 1066.3501075829965 -64.49738916546514 1077.8702710721327 -18.696328408913786C1089.3904345612686 27.104732347637565 1058.067910524007 83.51062350086283 1039.6593230704352 131.95481750320016C1021.2507356168637 180.3990115055375 1007.1900138625424 247.21139354901516 967.4187463507027 271.96883560511026C927.647478838863 296.72627766120536 853.6089972444461 283.7865194983188 801.0317179993974 280.4994698397708 " fill="url(#SvgjsLinearGradient1024)" stroke="none" opacity="0.5"/><path d="M1001.2172402035862 779.9609495385241C966.982085516853 790.8086223988294 916.8105418242399 772.3446409156547 878.3136761643666 768.9064821230452C839.8168105044933 765.4683233304356 802.0372193899943 784.6981238326903 770.2360462443467 759.331996782867C738.4348730986992 733.9658697330435 713.4407168144966 650.5383615543719 687.5066372904812 616.7097198241049C661.5725577664658 582.8810780938379 626.8685816293338 579.4588271523983 614.6315691002546 556.3601464012644C602.3945565711754 533.2614656501305 613.882062180295 507.87676433953834 614.0845621160057 478.1176353173019C614.2870620517165 448.35850629506547 603.888701692418 406.5037106665528 615.8465687145189 377.80537226784577C627.8044357366199 349.1070338691387 662.3214426550815 329.5878944595662 685.8317642486115 305.92760492505977C709.3420858421416 282.2673153905532 729.7726365931138 248.2824022237137 756.9084982756996 235.84363506080686C784.0443599582853 223.40486789790003 817.2364184438616 231.39747601733015 848.6469343441263 231.29500194761883C880.0574502443909 231.1925278779075 907.9037795290134 222.28513726776634 945.3715936772878 235.2287906425389C982.8394078255621 248.17244401731148 1040.2312123285235 282.8138213272212 1073.4538192337727 308.95692219625414C1106.6764261390217 335.1000230652871 1144.2316777942683 366.1075102227898 1144.7072351087825 392.0873958567364C1145.1827924232966 418.067281490683 1087.9841675960895 436.8398140473885 1076.3071631208581 464.8362359999338C1064.630158645627 492.8326579524791 1073.4089680634102 520.2352260784614 1074.6452082573946 560.0659275720081C1075.8814484513796 599.8966290655549 1095.9625989604012 667.1712746334615 1083.7246042847664 703.8204449612142C1071.4866096091316 740.4696152889669 1035.4523948903195 769.1132766782191 1001.2172402035862 779.9609495385241C966.982085516853 790.8086223988294 916.8105418242399 772.3446409156547 878.3136761643666 768.9064821230452 " fill="url(#SvgjsLinearGradient1025)" stroke="none" opacity="0.5"/><path d="M670.5279242456133 299.7190762828729C625.2897417481038 317.82583987121467 529.1989787564081 272.59515107284557 472.70992100110874 261.8281338997352C416.22086324580937 251.0611167266248 366.1449421271185 251.83578505374805 331.593577713817 235.11697324421067C297.04221330051547 218.39816143467328 279.6095467495522 201.62152180310989 265.40173452129966 161.51526304251075C251.19392229304722 121.40900428191162 229.000509423712 41.51534153139784 246.34670434430217 -5.520579319384069C263.69289926489233 -52.556500170165975 323.1159931879863 -88.42127972916822 369.47890404484065 -120.70026206218068C415.841814901695 -152.97924439519315 477.85614396054564 -198.7385506237525 524.5241694854283 -199.19447331745886C571.1921950103109 -199.6503960111652 609.2588577451415 -154.91250379007167 649.4870571941365 -123.43579822441876C689.7152566431314 -91.95909265876585 750.1180397140598 -56.438131689225344 765.8933661793981 -10.334239923541418C781.6686926447363 35.76965184214251 760.0332563084635 101.51199966861583 744.139015986166 153.18755236968485C728.2447756638685 204.86310507075387 715.7661067431228 281.61231269453117 670.5279242456133 299.7190762828729C625.2897417481038 317.82583987121467 529.1989787564081 272.59515107284557 472.70992100110874 261.8281338997352 " fill="none" stroke-width="4" stroke="url(#SvgjsLinearGradient1026)" opacity="0.5"/></svg>